<svg xmlns="http://www.w3.org/2000/svg" version="1.1" xmlns:xlink="http://www.w3.org/1999/xlink" xmlns:svgjs="http://svgjs.dev/svgjs" width="1440" height="560" preserveAspectRatio="none" viewBox="0 0 1440 560"><g mask="url(&quot;#SvgjsMask1002&quot;)" fill="none"><rect width="1440" height="560" x="0" y="0" fill="rgba(26, 16, 60, 1)"></rect><path d="M0 262.27L10 327.04L20 274.05L30 252.04L40 261.22L50 201L60 160.68L70 165.97L80 140.84L90 165.48L100 127.91L110 120.45L120 77.4L130 41.07L140 35.07L150 50.22L160 87.6L170 118.31L180 72.75L190 10.1L200 9.83L210 69.85L220 46.62L230 110.51L240 88.53L250 119.88L260 147.81L270 86.22L280 94.43L290 133.09L300 100.3L310 83.97L320 149.51L330 99.19L340 167.53L350 180.12L360 227.2L370 215.22L380 280.33L390 239.86L400 209.91L410 186.25L420 122.62L430 169.99L440 142.91L450 109.26L460 71.55L470 27.11L480 29.09L490 17.97L500 87.46L510 111.84L520 156.31L530 101.15L540 105.64L550 58.21L560 49.95L570 44.5L580 20.85L590 46.66L600 86.16L610 87.69L620 138.86L630 204.1L640 221.53L650 181.68L660 141.64L670 181.97L680 149.65L690 160.84L700 186.51L710 154.72L720 206L730 261.24L740 318.55L750 372.88L760 404.9L770 377.91L780 441.9L790 484.76L800 419.24L810 394.71L820 419.24L830 396.67L840 385.18L850 357.84L860 319.45L870 292.22L880 299.44L890 354.5L900 360.64L910 304.49L920 306.92L930 325.64L940 328.89L950 367.43L960 305.98L970 335.63L980 345.78L990 368.59L1000 332.63L1010 298.83L1020 319.14L1030 322.77L1040 390.9L1050 432.28L1060 367.1L1070 373.82L1080 358.29L1090 360.59L1100 357.83L1110 311.67L1120 262.34L1130 201.51L1140 181.51L1150 146.58L1160 141.79L1170 202.15L1180 256.97L1190 296.9L1200 250.65L1210 307.17L1220 342.86L1230 393.12L1240 441.44L1250 396.83L1260 423.12L1270 369.54L1280 369.23L1290 366.84L1300 410.05L1310 396.88L1320 418.74L1330 359.01L1340 355.24L1350 295.47L1360 322.53L1370 360.87L1380 369L1390 415.76L1400 394.06L1410 359.09L1420 378.36L1430 428.91L1440 446.61" stroke="#224b75" stroke-width="2"></path><path d="M0 262.27L10 327.04L20 274.05L30 252.04L40 261.22L50 201L60 160.68L70 165.97L80 140.84L90 165.48L100 127.91L110 120.45L120 77.4L130 41.07L140 35.07L150 50.22L160 87.6L170 118.31L180 72.75L190 10.1L200 9.83L210 69.85L220 46.62L230 110.51L240 88.53L250 119.88L260 147.81L270 86.22L280 94.43L290 133.09L300 100.3L310 83.97L320 149.51L330 99.19L340 167.53L350 180.12L360 227.2L370 215.22L380 280.33L390 239.86L400 209.91L410 186.25L420 122.62L430 169.99L440 142.91L450 109.26L460 71.55L470 27.11L480 29.09L490 17.97L500 87.46L510 111.84L520 156.31L530 101.15L540 105.64L550 58.21L560 49.95L570 44.5L580 20.85L590 46.66L600 86.16L610 87.69L620 138.86L630 204.1L640 221.53L650 181.68L660 141.64L670 181.97L680 149.65L690 160.84L700 186.51L710 154.72L720 206L730 261.24L740 318.55L750 372.88L760 404.9L770 377.91L780 441.9L790 484.76L800 419.24L810 394.71L820 419.24L830 396.67L840 385.18L850 357.84L860 319.45L870 292.22L880 299.44L890 354.5L900 360.64L910 304.49L920 306.92L930 325.64L940 328.89L950 367.43L960 305.98L970 335.63L980 345.78L990 368.59L1000 332.63L1010 298.83L1020 319.14L1030 322.77L1040 390.9L1050 432.28L1060 367.1L1070 373.82L1080 358.29L1090 360.59L1100 357.83L1110 311.67L1120 262.34L1130 201.51L1140 181.51L1150 146.58L1160 141.79L1170 202.15L1180 256.97L1190 296.9L1200 250.65L1210 307.17L1220 342.86L1230 393.12L1240 441.44L1250 396.83L1260 423.12L1270 369.54L1280 369.23L1290 366.84L1300 410.05L1310 396.88L1320 418.74L1330 359.01L1340 355.24L1350 295.47L1360 322.53L1370 360.87L1380 369L1390 415.76L1400 394.06L1410 359.09L1420 378.36L1430 428.91L1440 446.61L1440 560L0 560z" fill="url(&quot;#SvgjsLinearGradient1003&quot;)"></path></g><defs><mask id="SvgjsMask1002"><rect width="1440" height="560" fill="#ffffff"></rect></mask><linearGradient x1="50%" y1="0%" x2="50%" y2="100%" id="SvgjsLinearGradient1003"><stop stop-opacity="0.65" stop-color="#224b75" offset="0"></stop><stop stop-opacity="0" stop-color="#508dcc" offset="0.8"></stop></linearGradient></defs></svg>