<svg data-name="Layer 1" xmlns="http://www.w3.org/2000/svg" viewBox="0 0 512 512"><path d="M357.61 324a70.67 70.67 0 0 0 8.22-33.19v-121A18.66 18.66 0 0 0 352.49 152L254 123.13a2 2 0 0 0-1.15 0l-73.5 22.57-104-104a2 2 0 1 0-2.83 2.83L175 147l-15.74 4.83a18.47 18.47 0 0 0-13.11 17.74V179L69.9 102.71a2 2 0 0 0-2.83 2.83l79.1 79.1v105.78a70.24 70.24 0 0 0 39.28 63.31l70.65 35a2 2 0 0 0 .89.21 2.09 2.09 0 0 0 .9-.22l61.39-31L402.5 441a2 2 0 0 0 1.41.59 2 2 0 0 0 1.42-3.42L323 355.85l4-2a70.42 70.42 0 0 0 28.54-26.28l53 53a2 2 0 0 0 1.41.58 2 2 0 0 0 1.42-3.41zm-170.38 26.14a66.26 66.26 0 0 1-37.06-59.72V169.6a14.49 14.49 0 0 1 10.29-13.91l93-28.56 97.88 28.67a14.64 14.64 0 0 1 10.47 14v121a66.34 66.34 0 0 1-36.62 59.5L257 384.72zm-1.63 112.24a219.4 219.4 0 0 1-136-136 2 2 0 0 0-3.79 1.3 223.46 223.46 0 0 0 138.5 138.49 2.05 2.05 0 0 0 .64.11 2 2 0 0 0 .65-3.9zM326.4 49.61a219.44 219.44 0 0 1 136 136 2 2 0 0 0 1.89 1.35 1.89 1.89 0 0 0 .65-.11 2 2 0 0 0 1.24-2.54A223.41 223.41 0 0 0 327.7 45.83a2 2 0 0 0-1.3 3.78z" fill="#081216"/><circle cx="36" cy="256" r="15" fill="#081216"/><circle cx="476" cy="256" r="15" fill="#081216"/><circle cx="256" cy="36" r="15" fill="#081216"/><circle cx="256" cy="476" r="15" fill="#081216"/><path d="M325.21 350.27a66.34 66.34 0 0 0 36.62-59.5v-121a14.64 14.64 0 0 0-10.47-14l-97.88-28.67-93 28.56a14.49 14.49 0 0 0-10.29 13.91v120.85a66.26 66.26 0 0 0 37.06 59.72L257 384.72zm-75.74-4.87-42.93-21.28a48.75 48.75 0 0 1-27.1-43.68v-83.89a14.32 14.32 0 0 1 10.12-13.69l59.27-18.2a18.74 18.74 0 0 1 10.75-.07L322.26 183a14.33 14.33 0 0 1 10.3 13.75v84a48.78 48.78 0 0 1-26.78 43.52l-41.88 21.08a16.11 16.11 0 0 1-14.43.05z" fill="#fff"/><path d="M253.09 233a55.92 55.92 0 0 1 19.91 2.48 16.76 16.76 0 0 0 .25-2.76 17 17 0 1 0-34 0 16.61 16.61 0 0 0 .24 2.74 55.47 55.47 0 0 1 13.6-2.46z" fill="#081216"/><path d="M305.78 324.21a48.78 48.78 0 0 0 26.78-43.52v-84a14.33 14.33 0 0 0-10.3-13.69l-62.68-18.36a18.74 18.74 0 0 0-10.75.07l-59.27 18.2a14.32 14.32 0 0 0-10.12 13.69v83.89a48.75 48.75 0 0 0 27.1 43.68l42.93 21.28a16.11 16.11 0 0 0 14.43 0zm-80-51.28v-25.68a9.29 9.29 0 0 1 5.09-8.32l1-.5a25 25 0 1 1 48.71 0c.33.15.65.3 1 .46a9.34 9.34 0 0 1 5.18 8.36v25.66a9.71 9.71 0 0 1-8 9.57 126.88 126.88 0 0 1-44.95 0 9.77 9.77 0 0 1-8.06-9.55z" fill="#081216"/><path d="M255.61 284.52a126.49 126.49 0 0 0 23.16-2 9.71 9.71 0 0 0 8-9.57v-25.68a9.34 9.34 0 0 0-5.18-8.36c-.31-.16-.63-.31-1-.46a25 25 0 1 0-48.71 0l-1 .5a9.29 9.29 0 0 0-5.09 8.32v25.68a9.77 9.77 0 0 0 8.07 9.6 127.59 127.59 0 0 0 21.75 1.97zm-4.14-14.09 1.81-10.36a5.66 5.66 0 1 1 6.39 0l1.81 10.36zm4.77-54.74a17 17 0 0 1 17 17 16.76 16.76 0 0 1-.25 2.76 55.47 55.47 0 0 0-33.55 0 16.61 16.61 0 0 1-.24-2.74 17 17 0 0 1 17.04-17.02z" fill="#fff5db"/><path d="M262.13 255.41a5.66 5.66 0 1 0-8.85 4.66l-1.81 10.36h10l-1.81-10.36a5.64 5.64 0 0 0 2.47-4.66z" fill="#081216"/></svg>